<?xml version="1.0" encoding="UTF-8" standalone="no"?>
<svg
   xmlns:dc="http://purl.org/dc/elements/1.1/"
   xmlns:cc="http://creativecommons.org/ns#"
   xmlns:rdf="http://www.w3.org/1999/02/22-rdf-syntax-ns#"
   xmlns:svg="http://www.w3.org/2000/svg"
   xmlns="http://www.w3.org/2000/svg"
   xmlns:sodipodi="http://sodipodi.sourceforge.net/DTD/sodipodi-0.dtd"
   xmlns:inkscape="http://www.inkscape.org/namespaces/inkscape"
   version="1.1"
   id="Layer_1"
   x="0px"
   y="0px"
   viewBox="0 0 107.73366 99.94"
   xml:space="preserve"
   sodipodi:docname="alojamiento.svg"
   inkscape:version="1.0.1 (3bc2e813f5, 2020-09-07)"
   width="107.73365"
   height="99.940002"><metadata
     id="metadata11"><rdf:RDF><cc:Work
         rdf:about=""><dc:format>image/svg+xml</dc:format><dc:type
           rdf:resource="http://purl.org/dc/dcmitype/StillImage" /><dc:title></dc:title></cc:Work></rdf:RDF></metadata><defs
     id="defs9" /><sodipodi:namedview
     pagecolor="#ffffff"
     bordercolor="#666666"
     borderopacity="1"
     objecttolerance="10"
     gridtolerance="10"
     guidetolerance="10"
     inkscape:pageopacity="0"
     inkscape:pageshadow="2"
     inkscape:window-width="1366"
     inkscape:window-height="705"
     id="namedview7"
     showgrid="false"
     inkscape:zoom="3.4881293"
     inkscape:cx="32.897491"
     inkscape:cy="56.357368"
     inkscape:window-x="0"
     inkscape:window-y="0"
     inkscape:window-maximized="1"
     inkscape:current-layer="g4"
     inkscape:document-rotation="0"
     fit-margin-top="0"
     fit-margin-left="0"
     fit-margin-right="0"
     fit-margin-bottom="0" /><g
     id="g4"><path
       d="M 3.7001401,67.36 H 103.92834 v -4.67 c 0,-1.13 -0.19289,-2.18 -0.53485,-3.12 -0.36826,-1 -0.91188,-1.89 -1.58703,-2.66 -0.4121,-0.47 -0.87681,-0.9 -1.37659,-1.28 -0.508549,-0.39 -1.052173,-0.73 -1.622098,-1.02 -1.534421,-0.38 -3.060073,-0.74 -4.576952,-1.08 -1.52565,-0.34 -3.060068,-0.66 -4.603255,-0.96 -0.07014,-0.01 -0.122754,-0.02 -0.192898,-0.04 -0.780361,-0.15 -1.525651,-0.29 -2.235867,-0.42 -0.710216,-0.13 -1.464273,-0.26 -2.253403,-0.4 h -0.01754 c -5.366075,-0.78 -10.714619,-1.38 -16.054396,-1.78 -5.348543,-0.4 -10.670783,-0.6 -15.957949,-0.61 -3.138982,0 -6.269196,0.06 -9.399409,0.2 -3.112676,0.14 -6.24289,0.34 -9.373104,0.62 h -0.01754 c -2.928547,0.31 -5.848326,0.7 -8.776873,1.15 -2.919779,0.45 -5.848326,0.98 -8.794409,1.57 l -0.32442,0.09 c -0.06138,0.02 -0.122754,0.03 -0.175362,0.03 -0.05261,0.01 -0.105218,0.01 -0.157826,0.01 -1.376593,0.28 -2.788257,0.59 -4.243763,0.92 -1.411665,0.32 -2.8233294,0.66 -4.2262262,1.01 -0.3507241,0.22 -0.6839121,0.47 -0.9995639,0.73 -0.3156518,0.27 -0.6225355,0.56 -0.8943467,0.87 v 0 c -0.587463,0.67 -1.0521725,1.44 -1.3678243,2.3 -0.2981155,0.81 -0.4647096,1.71 -0.4647096,2.69 z M 12.450709,0 h 81.534604 c 1.060941,0 2.078039,0.24 3.007456,0.68 0.964497,0.46 1.832534,1.13 2.560289,1.95 0.727752,0.83 1.315222,1.82 1.709782,2.92 0.38579,1.06 0.59623,2.22 0.59623,3.43 v 42.69 c 0.44718,0.3 0.88558,0.63 1.28891,0.99 0.45595,0.4 0.88558,0.82 1.28014,1.27 1.0171,1.16 1.84131,2.51 2.3937,4.03 0.52609,1.43 0.81543,3.02 0.81543,4.74 v 6.09 c 0.0263,0.1 0.0526,0.2 0.0701,0.3 v 0.02 c 0.0176,0.13 0.0263,0.25 0.0263,0.37 0,0.13 -0.008,0.26 -0.0351,0.39 v 0 c -0.0176,0.1 -0.0439,0.2 -0.0701,0.3 v 27.66 c 0,0.58 -0.21044,1.11 -0.54362,1.49 -0.3332,0.38 -0.7979,0.62 -1.30645,0.62 h -3.81413 c -0.42964,0 -0.8242,-0.17 -1.13985,-0.45 -0.31565,-0.28 -0.5524,-0.68 -0.64885,-1.14 -0.701441,-2.3 -1.411656,-4.12 -2.174482,-5.54 -0.754056,-1.4 -1.560722,-2.4 -2.490139,-3.11 -0.938187,-0.71 -2.060508,-1.16 -3.419565,-1.43 -1.38536,-0.28 -2.998691,-0.37 -4.918906,-0.36 l -69.934403,0.1 h -0.03507 c -1.376593,-0.03 -2.507678,0.17 -3.454633,0.59 -0.938187,0.42 -1.701013,1.05 -2.332317,1.86 -0.710216,0.9 -1.306447,2.05 -1.8500696,3.39 -0.5523903,1.37 -1.0521723,2.93 -1.5519543,4.64 v 0 c -0.1227534,0.44 -0.3682603,0.79 -0.675144,1.04 -0.2893475,0.24 -0.6400716,0.38 -0.9995639,0.4 -0.026304,0.01 -0.052608,0.01 -0.078913,0.01 H 1.8500701 C 1.34152,99.94 0.87681046,99.7 0.54362248,99.32 0.21043451,98.94 0,98.41 0,97.83 V 61.52 C 0,59.95 0.26304314,58.51 0.73652078,57.21 1.2450709,55.83 1.9903598,54.6 2.9197788,53.54 3.182822,53.24 3.4721694,52.94 3.7790531,52.66 4.0420963,52.42 4.3051393,52.19 4.5857187,51.98 V 8.89 c 0,-1.21 0.2104345,-2.36 0.5962311,-3.4 C 5.5852827,4.4 6.1727457,3.42 6.9004983,2.6 7.628251,1.78 8.4962933,1.13 9.452017,0.68 10.381436,0.24 11.389768,0 12.450709,0 Z M 93.985313,4.22 H 12.450709 c -0.569928,0 -1.11355,0.13 -1.613332,0.36 C 10.32006,4.82 9.8641181,5.17 9.4783212,5.6 9.1012926,6.02 8.794409,6.54 8.5839744,7.1 8.3910761,7.65 8.2858588,8.25 8.2858588,8.89 v 41.06 c 0.2630432,-0.1 0.5260863,-0.18 0.7978975,-0.26 0.4296372,-0.13 0.8592744,-0.24 1.2889117,-0.32 0.59623,-0.12 1.24507,-0.25 1.946519,-0.39 0.526086,-0.1 1.087245,-0.21 1.66594,-0.31 V 38.19 c 0,-1.58 0.280579,-3.09 0.780361,-4.47 0.526087,-1.44 1.288912,-2.73 2.235867,-3.81 0.946955,-1.08 2.07804,-1.95 3.340648,-2.55 1.209998,-0.57 2.533982,-0.89 3.919342,-0.89 h 17.378384 c 1.38536,0 2.709344,0.32 3.919342,0.89 1.262608,0.6 2.393693,1.47 3.340648,2.55 0.946955,1.08 1.709781,2.37 2.235867,3.81 0.499782,1.38 0.780361,2.89 0.780361,4.47 v 6.69 c 0.613768,-0.01 1.227535,-0.01 1.850071,-0.01 v -6.68 c 0,-1.58 0.280579,-3.09 0.780361,-4.47 0.526086,-1.44 1.288911,-2.73 2.235867,-3.81 0.946955,-1.08 2.07804,-1.95 3.340648,-2.55 1.209998,-0.57 2.533982,-0.89 3.919342,-0.89 H 81.42062 c 1.38536,0 2.709344,0.32 3.919342,0.89 1.262608,0.6 2.393693,1.47 3.340648,2.55 0.946955,1.08 1.70978,2.37 2.235867,3.81 0.499782,1.38 0.780361,2.89 0.780361,4.47 v 10.34 c 0.657608,0.11 1.359056,0.24 2.113113,0.38 0.83297,0.15 1.630866,0.3 2.402462,0.45 0.394563,0.08 0.797896,0.17 1.201229,0.28 0.254272,0.07 0.499783,0.14 0.736525,0.22 V 8.98 c 0,-0.64 -0.11399,-1.25 -0.315652,-1.81 C 97.624074,6.59 97.308421,6.07 96.922628,5.62 96.536835,5.18 96.072122,4.82 95.572338,4.58 95.081324,4.35 94.54647,4.22 93.985313,4.22 Z M 37.88698,45.56 c 1.762389,-0.15 3.533546,-0.28 5.331008,-0.38 1.657171,-0.1 3.33188,-0.17 5.006587,-0.22 v -6.77 c 0,-1.01 -0.175362,-1.98 -0.499781,-2.86 -0.333189,-0.92 -0.824203,-1.74 -1.437969,-2.44 -0.605,-0.69 -1.332752,-1.25 -2.139418,-1.64 -0.771593,-0.37 -1.6221,-0.57 -2.507678,-0.57 H 24.261345 c -0.885578,0 -1.736084,0.2 -2.507678,0.57 -0.806665,0.38 -1.52565,0.94 -2.139417,1.64 -0.604999,0.69 -1.096013,1.52 -1.437969,2.44 -0.32442,0.88 -0.499782,1.85 -0.499782,2.86 V 48 c 1.420432,-0.24 2.858402,-0.46 4.331443,-0.68 1.587027,-0.23 3.165286,-0.44 4.726009,-0.64 0.604999,-0.08 1.253839,-0.17 1.928983,-0.25 0.631303,-0.08 1.288911,-0.15 1.990359,-0.23 1.192463,-0.13 2.376157,-0.25 3.542315,-0.36 1.20123,-0.09 2.428765,-0.19 3.691372,-0.28 z M 57.466158,44.9 c 1.060941,0.02 2.121881,0.05 3.182822,0.09 1.174925,0.04 2.349851,0.1 3.516009,0.16 h 0.0088 c 1.920214,0.08 3.796588,0.18 5.620354,0.3 1.823766,0.12 3.603691,0.27 5.304704,0.44 2.472606,0.25 4.866298,0.55 7.137237,0.9 2.0342,0.32 3.963183,0.68 5.769413,1.08 v -9.68 c 0,-1.01 -0.175362,-1.98 -0.499782,-2.86 -0.333219,-0.92 -0.824233,-1.74 -1.438,-2.44 C 85.462716,32.2 84.734963,31.64 83.928297,31.25 83.156704,30.88 82.306198,30.68 81.42062,30.68 H 64.051004 c -0.885578,0 -1.736085,0.2 -2.507678,0.57 -0.806666,0.38 -1.52565,0.94 -2.139418,1.64 -0.604998,0.69 -1.096012,1.52 -1.437969,2.44 -0.324419,0.88 -0.499781,1.85 -0.499781,2.86 z M 103.93711,71.59 H 3.7001401 v 24.13 h 1.253839 c 0.4910139,-1.58 0.9995639,-3.05 1.5694907,-4.36 0.6137673,-1.4 1.3064476,-2.64 2.1481856,-3.71 0.9995642,-1.28 2.1744896,-2.27 3.5861546,-2.93 1.411665,-0.65 3.060069,-0.98 5.04166,-0.93 l 69.873026,-0.1 c 2.253403,0 4.182386,0.12 5.865862,0.49 1.709784,0.37 3.182825,1 4.506805,2 1.227539,0.93 2.279707,2.16 3.226667,3.77 0.90311,1.54 1.70978,3.43 2.48137,5.76 h 0.66638 V 71.59 Z"
       id="path2"
       style="fill:#402c00;fill-opacity:1;stroke-width:0.936382" /></g></svg>
