<?xml version="1.0" encoding="UTF-8" standalone="no"?>
<svg
   xmlns:dc="http://purl.org/dc/elements/1.1/"
   xmlns:cc="http://creativecommons.org/ns#"
   xmlns:rdf="http://www.w3.org/1999/02/22-rdf-syntax-ns#"
   xmlns:svg="http://www.w3.org/2000/svg"
   xmlns="http://www.w3.org/2000/svg"
   xmlns:sodipodi="http://sodipodi.sourceforge.net/DTD/sodipodi-0.dtd"
   xmlns:inkscape="http://www.inkscape.org/namespaces/inkscape"
   version="1.1"
   id="Layer_1"
   x="0px"
   y="0px"
   viewBox="0 0 99.959999 104.1"
   xml:space="preserve"
   sodipodi:docname="attractions.svg"
   width="99.959999"
   height="104.1"
   inkscape:version="1.0.1 (3bc2e813f5, 2020-09-07)"><metadata
   id="metadata17"><rdf:RDF><cc:Work
       rdf:about=""><dc:format>image/svg+xml</dc:format><dc:type
         rdf:resource="http://purl.org/dc/dcmitype/StillImage" /><dc:title /></cc:Work></rdf:RDF></metadata><defs
   id="defs15" /><sodipodi:namedview
   pagecolor="#ffffff"
   bordercolor="#666666"
   borderopacity="1"
   objecttolerance="10"
   gridtolerance="10"
   guidetolerance="10"
   inkscape:pageopacity="0"
   inkscape:pageshadow="2"
   inkscape:window-width="1366"
   inkscape:window-height="705"
   id="namedview13"
   showgrid="false"
   fit-margin-top="0"
   fit-margin-left="0"
   fit-margin-right="0"
   fit-margin-bottom="0"
   inkscape:zoom="2.4208586"
   inkscape:cx="20.919586"
   inkscape:cy="53.391354"
   inkscape:window-x="0"
   inkscape:window-y="0"
   inkscape:window-maximized="1"
   inkscape:current-layer="g10"
   inkscape:document-rotation="0" />
<style
   type="text/css"
   id="style2">
	.st0{fill:#B99859;}
	.st1{fill:#FFFFFF;}
	.st2{fill:none;stroke:#B99859;stroke-width:4;stroke-linecap:round;stroke-linejoin:round;}
</style>
<g
   id="g10"
   transform="translate(-21.62,-20)">
	<path
   class="st0"
   d="m 71.6,99.4 c -1.6,0 -3.1,-0.8 -4,-2.2 L 46.9,65.4 C 39.4,53.8 41,38.3 50.8,28.6 56.4,23 63.7,20 71.6,20 c 7.9,0 15.2,3.1 20.8,8.6 9.8,9.8 11.4,25.2 3.9,36.8 L 75.5,97.3 c -0.8,1.3 -2.3,2.1 -3.9,2.1 z m 0,-75.2 c -6.7,0 -13,2.6 -17.8,7.4 -8.3,8.3 -9.7,21.6 -3.3,31.4 l 20.7,31.9 c 0.1,0.2 0.3,0.2 0.4,0.2 0.1,0 0.3,0 0.4,-0.2 L 92.6,63 c 6.4,-9.9 5,-23.1 -3.3,-31.4 -4.7,-4.7 -11,-7.4 -17.7,-7.4 z"
   id="path4"
   style="fill:#402c00;fill-opacity:1" />
	<circle
   class="st0"
   cx="71.599998"
   cy="49.400002"
   r="10.8"
   id="circle6"
   style="fill:#402c00;fill-opacity:1" />
	<path
   class="st0"
   d="m 115.1,124.1 h -87 c -2.2,0 -4.2,-1.1 -5.4,-2.9 -1.2,-1.8 -1.4,-4.1 -0.6,-6 L 34.6,84.7 c 1,-2.4 3.3,-4 6,-4 H 52.2 V 85 H 40.6 c -0.9,0 -1.7,0.5 -2,1.3 l -12.5,30.5 c -0.3,0.7 -0.2,1.4 0.2,2 0.4,0.6 1.1,1 1.8,1 h 87 c 0.7,0 1.4,-0.3 1.8,-1 0.4,-0.6 0.5,-1.3 0.2,-2 L 104.6,86.3 c -0.3,-0.8 -1.1,-1.3 -2,-1.3 H 91 v -4.3 h 11.6 c 2.6,0 5,1.6 6,4 l 12.5,30.5 c 0.8,2 0.6,4.3 -0.6,6 -1.3,1.8 -3.3,2.9 -5.4,2.9 z"
   id="path8"
   style="fill:#402c00;fill-opacity:1" />
</g>
</svg>
