<?xml version="1.0" encoding="UTF-8" standalone="no"?>
<svg
   xmlns:dc="http://purl.org/dc/elements/1.1/"
   xmlns:cc="http://creativecommons.org/ns#"
   xmlns:rdf="http://www.w3.org/1999/02/22-rdf-syntax-ns#"
   xmlns:svg="http://www.w3.org/2000/svg"
   xmlns="http://www.w3.org/2000/svg"
   xmlns:sodipodi="http://sodipodi.sourceforge.net/DTD/sodipodi-0.dtd"
   xmlns:inkscape="http://www.inkscape.org/namespaces/inkscape"
   version="1.1"
   id="Capa_1"
   x="0px"
   y="0px"
   viewBox="0 0 395 395"
   style="enable-background:new 0 0 395 395;"
   xml:space="preserve"
   sodipodi:docname="restaurant.svg"
   inkscape:version="1.0.1 (3bc2e813f5, 2020-09-07)"><metadata
   id="metadata47"><rdf:RDF><cc:Work
       rdf:about=""><dc:format>image/svg+xml</dc:format><dc:type
         rdf:resource="http://purl.org/dc/dcmitype/StillImage" /></cc:Work></rdf:RDF></metadata><defs
   id="defs45" /><sodipodi:namedview
   pagecolor="#ffffff"
   bordercolor="#666666"
   borderopacity="1"
   objecttolerance="10"
   gridtolerance="10"
   guidetolerance="10"
   inkscape:pageopacity="0"
   inkscape:pageshadow="2"
   inkscape:window-width="1366"
   inkscape:window-height="705"
   id="namedview43"
   showgrid="false"
   inkscape:zoom="0.88254087"
   inkscape:cx="132.28657"
   inkscape:cy="226.33619"
   inkscape:window-x="0"
   inkscape:window-y="0"
   inkscape:window-maximized="1"
   inkscape:current-layer="Capa_1" />
<g
   id="g10"
   style="fill:#402c00;fill-opacity:1">
	<path
   d="M100.881,291.641c-2.149,2.15-2.149,5.635,0,7.787l8.861,8.861c1.075,1.074,2.484,1.612,3.894,1.612   c1.408,0,2.814-0.537,3.89-1.61l68.967-68.861l-16.699-16.701L100.881,291.641z"
   id="path2"
   style="fill:#402c00;fill-opacity:1" />
	<path
   d="M325.641,116.731c-1.032-1.037-2.434-1.619-3.895-1.619c-0.001,0-0.002,0-0.004,0c-1.46,0-2.86,0.58-3.892,1.613   l-40.208,40.211c-1.037,1.036-2.42,1.606-3.895,1.606c-1.474,0.001-2.856-0.57-3.894-1.605c-1.038-1.038-1.606-2.42-1.606-3.894   c0-1.474,0.568-2.857,1.606-3.894l40.212-40.208c1.032-1.032,1.613-2.435,1.612-3.895c0-1.46-0.581-2.861-1.615-3.894l-1.948-1.946   c-2.15-2.146-5.635-2.146-7.783,0.003l-40.208,40.209c-1.037,1.037-2.42,1.606-3.893,1.606c-1.474,0-2.856-0.569-3.893-1.606   c-1.037-1.038-1.606-2.42-1.606-3.894c0-1.473,0.57-2.855,1.606-3.891l40.212-40.21c1.031-1.032,1.611-2.433,1.611-3.893   c0-1.461-0.58-2.861-1.611-3.893l-0.249-0.248c-1.898-1.897-4.891-2.15-7.082-0.595l-52.705,37.438   c-10.437,7.437-16.804,19.504-17.024,32.266l-0.133,6.674c-0.079,4.531-0.322,18.319-6.553,24.55l-12.296,12.296l16.639,16.796   l12.386-12.366c5.433-5.432,15.477-6.365,24.545-6.563l6.696-0.093c12.774-0.254,24.84-6.622,32.285-17.044l37.427-52.688   c1.553-2.187,1.304-5.176-0.591-7.075L325.641,116.731z"
   id="path4"
   style="fill:#402c00;fill-opacity:1" />
	<path
   d="M78.529,86.726c-1.201-1.211-2.894-1.801-4.587-1.589c-1.692,0.21-3.191,1.191-4.06,2.659   c-4.604,7.771-6.33,23.902,31.655,74.063c20.008,26.421,42.047,50.214,42.269,50.449c1.02,1.1,2.443,1.735,3.942,1.76   c1.511,0.04,2.944-0.562,3.999-1.626l8.71-8.78L268.404,311.61c1.035,1.033,2.434,1.613,3.895,1.613c1.46,0,2.859-0.58,3.892-1.613   l8.76-8.758c2.143-2.144,2.151-5.616,0.018-7.769L78.529,86.726z"
   id="path6"
   style="fill:#402c00;fill-opacity:1" />
	<path
   d="M313.001,0H81.999C36.785,0,0,36.784,0,81.998v230.993C0,358.211,36.785,395,81.999,395h231.002   C358.216,395,395,358.211,395,312.991V81.998C395,36.784,358.216,0,313.001,0z M380,312.991C380,349.94,349.945,380,313.001,380   H81.999C45.056,380,15,349.94,15,312.991V81.998C15,45.055,45.056,15,81.999,15h231.002C349.945,15,380,45.055,380,81.998V312.991z   "
   id="path8"
   style="fill:#402c00;fill-opacity:1" />
</g>
<g
   id="g12">
</g>
<g
   id="g14">
</g>
<g
   id="g16">
</g>
<g
   id="g18">
</g>
<g
   id="g20">
</g>
<g
   id="g22">
</g>
<g
   id="g24">
</g>
<g
   id="g26">
</g>
<g
   id="g28">
</g>
<g
   id="g30">
</g>
<g
   id="g32">
</g>
<g
   id="g34">
</g>
<g
   id="g36">
</g>
<g
   id="g38">
</g>
<g
   id="g40">
</g>
</svg>
