<?xml version="1.0" standalone="no"?>
<!DOCTYPE svg PUBLIC "-//W3C//DTD SVG 20010904//EN"
 "http://www.w3.org/TR/2001/REC-SVG-20010904/DTD/svg10.dtd">
<svg version="1.0" xmlns="http://www.w3.org/2000/svg"
 width="96.000000pt" height="96.000000pt" viewBox="0 0 96.000000 96.000000"
 preserveAspectRatio="xMidYMid meet">

<g transform="translate(0.000000,96.000000) scale(0.100000,-0.100000)"
fill="#000000" stroke="none">
<path d="M386 870 c-63 -16 -153 -70 -197 -117 -22 -24 -55 -74 -72 -111 -29
-61 -32 -76 -32 -163 0 -90 2 -99 37 -171 45 -91 103 -147 196 -191 61 -29 76
-32 162 -32 86 0 101 3 162 32 93 44 151 100 196 191 35 72 37 81 37 172 0 91
-2 100 -37 172 -68 136 -188 217 -336 224 -42 2 -94 -1 -116 -6z m131 -92 c24
-27 48 -72 57 -110 l6 -28 -100 0 -100 0 6 28 c16 64 64 132 94 132 9 0 26
-10 37 -22z m-204 -81 l-16 -57 -44 0 c-23 0 -43 2 -43 5 0 23 105 124 116
112 1 -1 -5 -28 -13 -60z m408 -7 c16 -19 29 -38 29 -42 0 -5 -20 -8 -44 -8
-43 0 -44 0 -55 44 -6 24 -14 51 -17 61 -7 17 -5 17 25 -1 18 -10 46 -35 62
-54z m-441 -210 l0 -80 -54 0 c-59 0 -66 8 -66 80 0 72 7 80 66 80 l54 0 0
-80z m320 0 l0 -80 -120 0 -120 0 0 80 0 80 120 0 120 0 0 -80z m194 58 c3
-13 6 -39 6 -58 0 -72 -7 -80 -66 -80 l-54 0 0 80 0 80 54 0 c47 0 54 -3 60
-22z m-485 -262 c6 -24 14 -51 17 -61 7 -17 5 -17 -25 1 -32 19 -91 81 -91 96
0 5 20 8 44 8 43 0 44 0 55 -44z m265 17 c-16 -65 -64 -133 -94 -133 -30 0
-78 68 -94 133 l-6 27 100 0 100 0 -6 -27z m176 19 c0 -15 -59 -77 -91 -96
-30 -18 -32 -18 -25 -1 3 10 11 37 17 61 11 44 12 44 55 44 24 0 44 -3 44 -8z"/>
</g>
</svg>
