<?xml version="1.0" standalone="no"?>
<!DOCTYPE svg PUBLIC "-//W3C//DTD SVG 20010904//EN"
 "http://www.w3.org/TR/2001/REC-SVG-20010904/DTD/svg10.dtd">
<svg version="1.0" xmlns="http://www.w3.org/2000/svg"
 width="96.000000pt" height="96.000000pt" viewBox="0 0 96.000000 96.000000"
 preserveAspectRatio="xMidYMid meet">

<g transform="translate(0.000000,96.000000) scale(0.100000,-0.100000)"
fill="#000000" stroke="none">
<path d="M410 871 c-86 -28 -141 -74 -181 -151 -34 -65 -32 -171 4 -257 49
-120 216 -368 247 -368 31 0 198 248 247 368 38 89 38 192 1 262 -31 60 -67
95 -128 125 -48 24 -147 35 -190 21z m134 -83 c86 -26 147 -127 132 -219 -4
-22 -20 -70 -36 -106 -30 -65 -148 -253 -160 -253 -12 0 -130 188 -160 253
-38 85 -46 135 -29 194 30 107 140 164 253 131z"/>
<path d="M431 686 c-87 -48 -50 -186 49 -186 51 0 100 49 100 99 0 75 -83 124
-149 87z"/>
</g>
</svg>
