<?xml version="1.0" standalone="no"?>
<!DOCTYPE svg PUBLIC "-//W3C//DTD SVG 20010904//EN"
 "http://www.w3.org/TR/2001/REC-SVG-20010904/DTD/svg10.dtd">
<svg version="1.0" xmlns="http://www.w3.org/2000/svg"
 width="96.000000pt" height="96.000000pt" viewBox="0 0 96.000000 96.000000"
 preserveAspectRatio="xMidYMid meet">

<g transform="translate(0.000000,96.000000) scale(0.100000,-0.100000)"
fill="#000000" stroke="none">
<path d="M105 775 c-20 -19 -25 -34 -25 -74 l0 -49 200 -127 200 -126 198 123
197 123 3 53 c3 44 -1 56 -22 77 l-25 25 -351 0 -351 0 -24 -25z m693 -72 c-2
-9 -73 -61 -160 -115 l-158 -97 -157 98 c-87 54 -159 106 -161 115 -3 14 28
16 318 16 297 0 321 -1 318 -17z"/>
<path d="M80 380 c0 -168 0 -171 25 -195 l24 -25 351 0 351 0 24 25 c25 24 25
27 25 195 0 93 -2 170 -5 170 -3 0 -21 -10 -40 -22 l-35 -23 0 -132 0 -133
-320 0 -320 0 0 134 0 134 -36 21 c-19 12 -37 21 -40 21 -2 0 -4 -77 -4 -170z"/>
</g>
</svg>
